<?xml version="1.0" standalone="no"?><!DOCTYPE svg PUBLIC "-//W3C//DTD SVG 1.1//EN" "http://www.w3.org/Graphics/SVG/1.1/DTD/svg11.dtd"><svg t="1673976646890" class="icon" viewBox="0 0 1024 1024" version="1.1" xmlns="http://www.w3.org/2000/svg" p-id="2046" xmlns:xlink="http://www.w3.org/1999/xlink" width="64" height="64"><path d="M502.4 128c-60.8 0-211.2 6.4-291.2 83.2C153.6 265.6 131.2 348.8 128 448c-6.4 156.8 28.8 256 86.4 307.2 12.8 9.6 44.8 35.2 105.6 54.4v80s0 32 19.2 38.4c3.2 0 6.4 3.2 9.6 3.2 19.2 0 35.2-22.4 57.6-44.8 19.2-22.4 35.2-38.4 44.8-54.4h70.4c60.8 0 211.2-6.4 291.2-83.2 57.6-57.6 80-140.8 80-246.4 3.2-16 3.2-35.2 3.2-54.4-3.2-118.4-38.4-198.4-86.4-243.2-19.2-16-102.4-76.8-281.6-76.8h-25.6z m-6.4 60.8H524.8c169.6 0 233.6 54.4 240 60.8 38.4 32 60.8 102.4 64 195.2v12.8c3.2 19.2 3.2 35.2 3.2 44.8-3.2 96-22.4 160-60.8 201.6-67.2 60.8-208 64-246.4 64h-60.8l-51.2 57.6-32 35.2-6.4 9.6c-6.4 6.4-16 19.2-22.4 22.4v-144c-64-16-89.6-38.4-96-44.8-44.8-38.4-70.4-131.2-64-256v-32c6.4-76.8 25.6-128 57.6-163.2 67.2-60.8 208-64 246.4-64z m-3.2 70.4c-16 0-16 22.4 0 22.4 118.4 0 220.8 80 220.8 230.4 0 16 22.4 16 22.4 0 0-163.2-108.8-256-243.2-252.8z m-126.816 29.6a28 28 0 0 0-20.352 5.568c-32 16-64.032 48.064-54.432 83.264 0 0 6.4 28.768 41.6 89.568 19.2 28.8 35.2 54.4 51.2 73.6 16 22.4 41.6 48 67.2 67.2 51.2 41.6 131.2 83.2 166.4 92.8 32 9.6 67.2-22.4 83.2-54.4 6.4-12.8 3.2-28.8-9.6-38.4-19.2-19.2-51.2-41.6-73.6-54.4-16-9.6-35.2-3.2-41.6 6.4l-16 19.2c-6.4 9.6-22.4 9.6-22.4 9.6-105.6-28.8-134.4-137.6-134.4-137.6s0-12.8 9.6-22.4l19.2-16c9.6-6.4 16-25.6 6.4-41.6-6.4-9.6-16-28.8-25.6-38.4-9.6-12.8-28.8-35.2-28.8-35.2a30.784 30.784 0 0 0-18.016-8.8zM515.2 323.2c-16-3.2-19.2 22.4-3.2 22.4 89.6 6.4 140.8 67.2 137.6 144-3.2 16 22.4 16 22.4 0 3.2-89.6-54.4-163.2-156.8-166.4z m9.6 60.8c-16-3.2-16 22.4 0 22.4 38.4 0 57.6 22.4 57.6 60.8 3.2 16 25.6 16 25.6 0-3.2-51.2-32-83.2-83.2-83.2z" p-id="2047" fill="#7360F2"></path></svg>